<svg width="171" height="27" viewBox="0 0 171 27" fill="none" xmlns="http://www.w3.org/2000/svg">
<path d="M145.109 16.5515V19.3702C148.753 19.3702 151.725 22.3286 151.725 25.9859H154.534C154.557 20.7912 150.332 16.5515 145.109 16.5515Z" fill="#F28080"/>
<path d="M145.109 22.3518V25.9625C147.105 25.9625 148.707 25.9625 148.707 25.9625C148.73 23.9591 147.105 22.3518 145.109 22.3518Z" fill="#F28080"/>
<path d="M161.127 9.91229V1.01367H153.976V9.91229H145.085V13.4997C145.085 13.4997 145.085 13.4997 145.108 13.4997C148.382 13.4997 151.516 14.7809 153.837 17.0871L153.976 17.2269C156.275 19.5563 157.552 22.7011 157.552 25.9624C157.552 25.9624 157.552 25.9624 157.552 25.9857H161.127V17.0871H170.018V9.91229H161.127Z" fill="#F28080"/>
<path d="M13.3848 0.0351562C16.9599 0.105041 20.0475 0.990244 22.6244 3.34302C22.9262 3.62256 23.3905 3.9021 23.437 4.25152C23.5066 4.64753 22.9494 4.85718 22.6709 5.13672C22.0673 5.74239 21.394 6.32476 20.7904 6.93042C20.5583 7.16337 20.4422 7.14008 20.2333 6.93042C18.91 5.55603 17.2849 4.67083 15.3813 4.3447C10.6221 3.57597 5.79335 6.09181 4.88796 11.403C4.00577 16.6211 7.11662 21.3033 12.5258 21.909C15.5438 22.2584 18.1439 21.3965 20.2797 19.2068C20.4654 18.9971 20.5583 19.0204 20.7672 19.2068C21.603 20.0221 22.4387 20.8141 23.2745 21.6062C23.5066 21.8158 23.553 21.9556 23.2977 22.2118C21.394 24.2618 19.0261 25.4498 16.3099 25.9157C12.7812 26.5214 9.36851 26.1254 6.25766 24.2851C2.24141 21.909 0.198467 18.275 0.0127446 13.616C-0.126547 10.1218 0.87171 7.00031 3.21645 4.39129C5.53798 1.80556 8.50954 0.501053 11.9222 0.128335C12.4794 0.0817458 13.0133 0.0584511 13.3848 0.0351562Z" fill="#0031B2"/>
<path d="M86.6985 17.5528C84.3305 17.5528 81.9626 17.5528 79.6178 17.5528C79.2464 17.5528 79.1071 17.5994 79.2464 18.0187C79.9661 20.3948 81.6376 21.676 83.9823 22.0487C86.3735 22.4447 88.5789 21.9788 90.413 20.2317C90.5755 20.0919 90.6451 20.0686 90.7844 20.2317C91.4809 21.047 92.1541 21.839 92.8738 22.6311C93.0827 22.864 92.9434 22.9805 92.8041 23.1435C91.4576 24.5878 89.7861 25.4264 87.8825 25.7759C84.9341 26.3116 82.0787 26.0787 79.4321 24.5878C76.4606 22.9339 74.9284 20.3016 74.673 16.9471C74.4408 14.1285 75.1373 11.566 77.0177 9.4229C79.1767 7.00024 81.9626 6.06845 85.1431 6.18492C90.0879 6.37128 93.7095 9.74903 94.2667 14.7108C94.3596 15.5261 94.3363 16.3182 94.3363 17.1335C94.3363 17.4596 94.197 17.5528 93.872 17.5528C91.4576 17.5528 89.0897 17.5528 86.6985 17.5528ZM79.1303 14.5245C79.2232 14.5245 79.2928 14.5478 79.3625 14.5478C82.7751 14.5478 86.211 14.5478 89.6236 14.5478C90.0183 14.5478 90.0183 14.408 89.9486 14.1052C89.3683 11.403 87.2325 9.79562 84.3305 9.86551C81.6144 9.93539 79.5482 11.7757 79.1303 14.5245Z" fill="#0031B2"/>
<path d="M131.017 23.5395C129.6 25.3798 127.72 25.8923 125.7 26.0321C124.005 26.1485 122.357 25.9389 120.825 25.1469C118.689 24.0287 117.644 22.235 117.761 19.8356C117.9 17.4363 119.2 15.9221 121.405 15.1068C122.729 14.6176 124.098 14.4778 125.468 14.4545C127.093 14.4313 128.718 14.4313 130.343 14.4545C130.691 14.4545 130.761 14.3614 130.761 14.0119C130.691 11.5893 129.182 10.0984 126.559 9.98194C124.307 9.86547 122.218 10.3547 120.361 11.6825C120.129 11.8455 120.036 11.8222 119.92 11.566C119.455 10.6575 118.991 9.77229 118.48 8.88708C118.341 8.63084 118.364 8.49107 118.62 8.30471C120.059 7.30304 121.661 6.72067 123.379 6.41783C125.561 6.02182 127.72 5.97523 129.879 6.53431C132.99 7.34963 134.893 9.60922 135.195 12.8239C135.265 13.5228 135.288 14.2449 135.288 14.9437C135.288 18.3914 135.288 21.839 135.288 25.2866C135.288 25.6128 135.242 25.7292 134.87 25.7292C133.686 25.7059 132.525 25.7059 131.342 25.7292C131.04 25.7292 130.947 25.6361 130.97 25.3565C131.04 24.844 131.017 24.2617 131.017 23.5395ZM127.627 17.5062C126.559 17.5528 125.329 17.3897 124.098 17.7391C122.984 18.0652 122.334 18.7408 122.241 19.7658C122.125 20.9072 122.636 21.7924 123.68 22.3049C124.284 22.6077 124.934 22.7242 125.584 22.7475C127.209 22.7941 128.672 22.4214 129.833 21.21C130.436 20.5811 130.877 19.8589 130.761 18.9272C130.715 18.601 130.738 18.2516 130.761 17.9022C130.784 17.5993 130.691 17.4829 130.366 17.4829C129.531 17.5295 128.649 17.5062 127.627 17.5062Z" fill="#0031B2"/>
<path d="M35.9267 6.20823C38.7357 6.23153 41.2894 7.00026 43.3556 9.00361C45.7235 11.3098 46.5129 14.2217 46.1414 17.4363C45.561 22.701 41.2894 26.1719 35.6481 26.0554C32.9087 25.9855 30.4479 25.1469 28.4746 23.1669C26.2691 20.9539 25.4566 18.2284 25.7119 15.1767C26.153 9.58598 30.6568 6.16164 35.9267 6.20823ZM30.2389 15.9921C30.2621 16.5977 30.2854 17.1102 30.3782 17.5994C30.8425 19.9522 32.514 21.6527 34.8123 22.072C37.2267 22.5146 39.5947 21.5129 40.7555 19.5329C41.5448 18.1818 41.7537 16.7142 41.568 15.1534C40.9876 10.5178 36.5303 9.14338 33.3962 10.6342C31.1211 11.7058 30.3086 13.7092 30.2389 15.9921Z" fill="#0031B2"/>
<path d="M55.2186 8.7708C58.283 5.99872 61.7188 5.57941 65.3869 6.86063C67.987 7.76913 69.2406 9.86566 69.7281 12.498C69.8674 13.29 69.9138 14.1053 69.9138 14.8973C69.9138 18.345 69.8906 21.7926 69.9138 25.2402C69.9138 25.7061 69.7745 25.7993 69.3567 25.776C68.1727 25.7527 66.9887 25.7527 65.7815 25.776C65.4333 25.776 65.3636 25.6828 65.3636 25.3567C65.3869 21.9557 65.3636 18.5546 65.3636 15.1536C65.3636 14.478 65.2708 13.8025 65.0851 13.1502C64.5975 11.5196 63.5528 10.5179 61.8813 10.2617C60.0009 9.98213 58.2598 10.2384 56.8668 11.6827C55.8918 12.7076 55.4971 13.9888 55.4739 15.3399C55.4275 18.6245 55.4275 21.9091 55.4507 25.2169C55.4507 25.7061 55.3114 25.7993 54.8703 25.776C53.6863 25.7527 52.5024 25.7527 51.2952 25.776C50.9702 25.776 50.9005 25.6828 50.9005 25.38C50.9005 19.1836 50.9005 12.9872 50.9005 6.81404C50.9005 6.51121 50.9702 6.39473 51.2952 6.41803C52.4792 6.44132 53.6399 6.44132 54.8239 6.41803C55.1953 6.41803 55.2418 6.5345 55.2418 6.86063C55.1953 7.46629 55.2186 8.09525 55.2186 8.7708Z" fill="#0031B2"/>
<path d="M95.7989 25.7992C96.7739 24.5413 97.6793 23.3533 98.5847 22.1653C100.047 20.2551 101.51 18.3216 102.996 16.4114C103.251 16.0853 103.274 15.8757 103.019 15.5262C100.813 12.6377 98.6312 9.72582 96.4489 6.81396C96.3561 6.69749 96.2864 6.58101 96.1703 6.41795C97.8418 6.41795 99.4437 6.41795 101.046 6.41795C101.301 6.41795 101.371 6.6276 101.463 6.76737C102.833 8.60767 104.226 10.448 105.596 12.2882C105.921 12.7309 105.921 12.7309 106.246 12.3115C107.615 10.4713 109.008 8.63096 110.378 6.76737C110.564 6.51113 110.773 6.39466 111.098 6.41795C112.56 6.44125 114 6.41795 115.578 6.41795C114.859 7.37304 114.185 8.25824 113.512 9.12015C111.864 11.2633 110.239 13.4297 108.591 15.5495C108.405 15.8058 108.382 15.9455 108.591 16.2018C110.912 19.2068 113.21 22.2351 115.509 25.2635C115.625 25.4032 115.741 25.5663 115.903 25.7992C114.928 25.7992 114.046 25.7992 113.141 25.7992C112.491 25.7992 111.817 25.776 111.167 25.7992C110.866 25.7992 110.703 25.7061 110.541 25.4731C109.078 23.4698 107.569 21.4664 106.106 19.4398C105.874 19.1369 105.781 19.1602 105.573 19.4398C104.11 21.4431 102.624 23.4232 101.138 25.4032C100.953 25.6595 100.767 25.776 100.442 25.776C98.9097 25.776 97.4007 25.7992 95.7989 25.7992Z" fill="#0031B2"/>
</svg>
